<svg xmlns="http://www.w3.org/2000/svg" xmlns:xlink="http://www.w3.org/1999/xlink" width="1440" height="899" viewBox="0 0 1440 899">
  <defs>
    <clipPath id="clip-path">
      <rect id="Rectangle_26196" data-name="Rectangle 26196" width="1440" height="899" fill="#fff"/>
    </clipPath>
  </defs>
  <g id="Mask_Group_6" data-name="Mask Group 6" clip-path="url(#clip-path)">
    <g id="Group_104516" data-name="Group 104516" transform="translate(-1850.992 -8988.864)" opacity="0.077">
      <path id="Path_29154" data-name="Path 29154" d="M1683.66,891.471a86.088,86.088,0,0,0,25.187-58.2,314.223,314.223,0,0,0-178.385,88.921L1232,1220.652c-260.278,260.279-684.2,267.834-946.4,9.493C21.313,969.751,20.115,544.4,282.005,282.508c237.42-237.42,609.186-258.619,870.6-63.594,46.924,35.007,102.048,57.01,159.88,62.314a86.159,86.159,0,0,0-25.253-59.691C1144.806,79.123,955.45.684,754.041.684S363.271,79.123,220.858,221.537,0,553.311,0,754.724s78.435,390.766,220.858,533.188c293.994,293.99,772.367,293.99,1066.369,0Z" transform="translate(1130.992 8683.912)" fill="#316cf4"/>
      <path id="Path_29155" data-name="Path 29155" d="M260.943,260.67C-.947,522.559.251,947.912,264.535,1208.307c262.2,258.34,686.125,250.786,946.4-9.493L1509.4,900.352a314.232,314.232,0,0,1,178.385-88.921c.033-.984.14-1.967.14-2.951a86.481,86.481,0,0,0-147.632-61.154l-396.428,396.442c-226.568,226.553-595.21,226.553-821.769,0C212.342,1034.021,151.9,888.094,151.9,732.886S212.342,431.751,322.1,322,577.766,151.8,732.979,151.8s301.13,60.444,410.881,170.2a86.42,86.42,0,0,0,147.559-62.613c-57.831-5.3-112.955-27.309-159.88-62.314C870.129,2.05,498.363,23.25,260.943,260.67" transform="translate(1152.054 8704.665)" fill="#316cf4"/>
      <path id="Path_29160" data-name="Path 29160" d="M2312.791,1204.211c261.889-261.891,260.693-687.239-3.593-947.633C2047-1.766,1623.073,5.789,1362.8,266.068L1064.333,564.529a314.226,314.226,0,0,1-178.37,88.92,86.392,86.392,0,0,0,147.477,64.458l396.432-396.432c109.751-109.755,255.669-170.2,410.882-170.2s301.135,60.444,410.881,170.2,170.2,255.665,170.2,410.882-60.443,301.135-170.2,410.882c-226.563,226.553-595.2,226.553-821.768,0a86.433,86.433,0,0,0-147.576,62.249c57.839,5.3,112.971,27.305,159.9,62.318,261.411,195.025,633.175,173.826,870.6-63.6" transform="translate(1416.209 8705.192)" fill="#316cf4"/>
      <path id="Path_29161" data-name="Path 29161" d="M911.119,617.062a86.087,86.087,0,0,0-25.171,57.847,314.226,314.226,0,0,0,178.37-88.92L1362.78,287.528c260.278-260.279,684.2-267.834,946.4-9.49,264.286,260.394,265.482,685.743,3.593,947.633-237.421,237.422-609.186,258.621-870.6,63.6-46.931-35.013-102.063-57.018-159.9-62.318a86.169,86.169,0,0,0,25.28,60.055c294,293.99,772.371,293.99,1066.37,0,142.414-142.422,220.854-331.774,220.854-533.187s-78.44-390.774-220.854-533.187c-294-294-772.371-294-1066.375,0Z" transform="translate(1416.224 8683.732)" fill="#316cf4"/>
      <path id="Path_29156" data-name="Path 29156" d="M792.749,876.294A278.138,278.138,0,0,1,489.3,936.208v181.581a453.689,453.689,0,0,0,107.206,12.761c120.329,0,233.458-46.863,318.544-131.949a86.483,86.483,0,1,0-122.3-122.306M489.3,242.619V424.064c100.8-42.055,221.559-22.14,303.45,59.751a86.48,86.48,0,0,0,122.3-122.306c-87.824-87.819-203.184-131.727-318.544-131.727a453.732,453.732,0,0,0-107.2,12.837" transform="translate(1288.524 8757.669)" fill="#316cf4"/>
      <path id="Path_29157" data-name="Path 29157" d="M383.943,420.876c-118.171,135.677-118.171,341.335,0,477.013,122.678,140.854,325.279,163.145,473.257,66.877,43.525-28.316,93.93-43.924,145.61-47.277A86.458,86.458,0,0,0,855.2,855.8,277.528,277.528,0,0,1,462.715,463.318c108.211-108.21,284.283-108.21,392.493,0a86.478,86.478,0,0,0,147.629-61.153c0-.3-.04-.595-.044-.891C951.118,397.917,900.721,382.31,857.2,354c-147.978-96.268-350.579-73.978-473.257,66.878" transform="translate(1226.069 8778.786)" fill="#ffb45c"/>
      <path id="Path_29158" data-name="Path 29158" d="M361.564,361.978C276.482,447.066,229.623,560.19,229.623,680.52s46.859,233.462,131.941,318.549,198.216,131.949,318.549,131.949,233.458-46.863,318.545-131.949a86.187,86.187,0,0,0,25.3-60.614c-51.68,3.352-102.085,18.961-145.61,47.277C730.372,1082,527.771,1059.708,405.092,918.854c-118.171-135.679-118.171-341.336,0-477.013C527.771,300.986,730.372,278.7,878.35,374.964c43.521,28.312,93.918,43.919,145.593,47.276a86.166,86.166,0,0,0-25.289-60.261c-175.645-175.637-461.439-175.637-637.089,0" transform="translate(1204.919 8757.819)" fill="#ffb45c"/>
      <path id="Path_29159" data-name="Path 29159" d="M1307.59,1109.993a86.49,86.49,0,0,0-3.871,118.171H1600.4a578.347,578.347,0,0,1-170.508-118.171,86.48,86.48,0,0,0-122.3,0M1302.91,170.6,911.159,562.356a86.482,86.482,0,0,0,122.3,122.3L1429.9,288.23A581.182,581.182,0,0,1,1598.509,170.6Z" transform="translate(1416.186 8738.617)" fill="#67e0c8"/>
      <path id="Path_29162" data-name="Path 29162" d="M1373.413,876.294a86.493,86.493,0,0,0,0,122.306c85.087,85.086,198.216,131.949,318.55,131.949a453.664,453.664,0,0,0,107.2-12.761V936.208a278.138,278.138,0,0,1-303.446-59.914,86.48,86.48,0,0,0-122.3,0m0-514.785a86.48,86.48,0,1,0,122.3,122.306c81.89-81.891,202.655-101.8,303.45-59.75V242.619a453.73,453.73,0,0,0-107.2-12.837c-115.362,0-230.723,43.909-318.545,131.727" transform="translate(1565.01 8757.669)" fill="#316cf4"/>
      <path id="Path_29163" data-name="Path 29163" d="M1969.479,659.085a277.522,277.522,0,0,1-473.77,196.244,86.455,86.455,0,0,0-147.6,61.693c51.68,3.352,102.082,18.959,145.608,47.276,147.977,96.267,350.579,73.976,473.257-66.877,118.17-135.679,118.17-341.336,0-477.013-122.678-140.855-325.281-163.146-473.257-66.878-43.52,28.312-93.917,43.919-145.592,47.274A86.438,86.438,0,0,0,1495.7,462.849c108.211-108.21,284.283-108.21,392.489,0a275.686,275.686,0,0,1,81.287,196.236" transform="translate(1565.016 8778.635)" fill="#ff5c5c"/>
      <path id="Path_29164" data-name="Path 29164" d="M1966.969,441.372c118.171,135.677,118.171,341.335,0,477.013-122.678,140.854-325.281,163.145-473.257,66.877-43.525-28.316-93.927-43.923-145.608-47.276a86.239,86.239,0,0,0,25.3,60.613c85.086,85.086,198.216,131.949,318.549,131.949S1925.41,1083.686,2010.5,998.6s131.942-198.212,131.942-318.549S2095.583,446.6,2010.5,361.509c-175.646-175.637-461.444-175.637-637.091,0a86.163,86.163,0,0,0-25.286,60.26c51.675-3.355,102.072-18.962,145.592-47.274,147.977-96.268,350.579-73.978,473.257,66.878" transform="translate(1565.016 8757.669)" fill="#ff5c5c"/>
    </g>
  </g>
</svg>
