<svg xmlns="http://www.w3.org/2000/svg" xmlns:xlink="http://www.w3.org/1999/xlink" width="77.573" height="77.576" viewBox="0 0 77.573 77.576">
  <defs>
    <linearGradient id="linear-gradient" x1="-0.458" y1="1.814" x2="1.235" y2="-0.366" gradientUnits="objectBoundingBox">
      <stop offset="0" stop-color="#fff"/>
      <stop offset="0.308" stop-color="#67e0c8"/>
      <stop offset="0.697" stop-color="#2b6bf3"/>
      <stop offset="1" stop-color="#154092"/>
    </linearGradient>
    <clipPath id="clip-path">
      <rect id="Rectangle_26441" data-name="Rectangle 26441" width="77.573" height="77.576" stroke="rgba(0,0,0,0)" stroke-width="1" fill="url(#linear-gradient)"/>
    </clipPath>
  </defs>
  <g id="aiTools" transform="translate(-497.214 -493.356)">
    <g id="Group_104827" data-name="Group 104827" transform="translate(497.214 493.356)">
      <g id="Group_104826" data-name="Group 104826" clip-path="url(#clip-path)">
        <path id="Path_29307" data-name="Path 29307" d="M14.126,47.428h6.588V39.572h-.482q-6.913,0-13.827-.005a.56.56,0,0,0-.629.4A2.965,2.965,0,0,1,2.368,41.74a3.02,3.02,0,1,1,3.4-4.164c.124.284.241.442.6.44,4.641-.015,9.281-.009,13.922-.009.138,0,.276-.017.439-.027V30.136h-.45c-1.916,0-3.833.008-5.749-.007a.534.534,0,0,0-.589.391,3.014,3.014,0,1,1-3.476-4.128,2.968,2.968,0,0,1,3.446,1.7.626.626,0,0,0,.7.444c1.869-.019,3.738-.009,5.607-.009h.54c0-.4-.005-.753,0-1.11.012-.7-.021-1.4.055-2.087a5.075,5.075,0,0,1,5.09-4.565c.852-.007,1.7,0,2.588,0V14.1a3.125,3.125,0,0,1-1.919-1.689,3.021,3.021,0,0,1,5.451-2.6,2.981,2.981,0,0,1-1.343,4.045.831.831,0,0,0-.556.918c.025,1.805.01,3.611.01,5.417v.54H38v-.54q0-6.866.006-13.732a.62.62,0,0,0-.439-.7,2.982,2.982,0,0,1-1.7-3.571,3.026,3.026,0,0,1,5.936.7,2.989,2.989,0,0,1-1.849,2.89.529.529,0,0,0-.4.581q.016,6.961.008,13.922c0,.139.018.278.029.448h7.814v-6.61c-1.738-.856-2.46-2.082-2.12-3.591a3.029,3.029,0,0,1,5.9-.03c.349,1.521-.38,2.768-2.117,3.624v6.633h2.487A5.061,5.061,0,0,1,56.692,24.9a20.05,20.05,0,0,1,.122,2.888c.007.22,0,.441,0,.737H57.3c1.916,0,3.833-.007,5.749.009a.53.53,0,0,0,.581-.4,3.015,3.015,0,1,1,3.428,4.139,2.962,2.962,0,0,1-3.4-1.71.624.624,0,0,0-.7-.437c-1.853.015-3.706.008-5.559.008H56.85v7.871h.519q6.913,0,13.827.006a.533.533,0,0,0,.591-.383,3.013,3.013,0,1,1,3.1,4.166,3.018,3.018,0,0,1-3.113-1.859c-.1-.248-.2-.374-.5-.373q-7.056.015-14.112.008c-.093,0-.185.013-.312.023v7.818c.144.01.281.028.419.028,1.916,0,3.833-.008,5.749.009a.565.565,0,0,0,.619-.413,3.012,3.012,0,1,1,.037,2.521c-.074-.157-.14-.318-.21-.477H56.814c0,.861.008,1.7,0,2.531a5.148,5.148,0,0,1-5.262,5.206c-.807,0-1.613,0-2.5,0,0,.192,0,.358,0,.523,0,1.9.008,3.8-.005,5.7a.523.523,0,0,0,.382.589,3.012,3.012,0,1,1-4.112,3.486,3.034,3.034,0,0,1,1.76-3.514c.144-.065.346-.229.347-.348.021-2.12.015-4.239.015-6.4H39.568v.456q0,6.937-.007,13.874a.559.559,0,0,0,.415.616,3.009,3.009,0,0,1-1.041,5.773,3.012,3.012,0,0,1-1.482-5.715c.169-.084.345-.155.532-.238V56.86H30.162c-.009.126-.027.263-.028.4,0,1.932.006,3.865-.01,5.8a.533.533,0,0,0,.4.581,3.02,3.02,0,1,1-2.385,0,.526.526,0,0,0,.391-.584c-.016-1.916-.008-3.833-.008-5.749v-.481c-.877,0-1.711,0-2.544,0a5.15,5.15,0,0,1-5.22-5.248c-.008-.819,0-1.639,0-2.486H14.123c-.856,1.743-2.117,2.477-3.632,2.116a3.03,3.03,0,0,1,0-5.894c1.512-.366,2.758.358,3.636,2.124m8.22-8.638c0,4.26-.008,8.521,0,12.781a3.519,3.519,0,0,0,3.563,3.654q12.876.016,25.752,0a3.5,3.5,0,0,0,3.558-3.56q.016-12.876-.011-25.752a3.7,3.7,0,0,0-.359-1.55,3.463,3.463,0,0,0-3.379-2.016q-12.614,0-25.229,0a3.578,3.578,0,0,0-3.9,3.9q0,6.272,0,12.543m-20.733,0A1.412,1.412,0,0,0,2.98,40.2a1.415,1.415,0,1,0,.009-2.829,1.411,1.411,0,0,0-1.377,1.41m37.134,37.18A1.415,1.415,0,0,0,40.2,74.584a1.414,1.414,0,0,0-2.828-.033,1.413,1.413,0,0,0,1.374,1.414M38.76,4.409a1.415,1.415,0,0,0,1.441-1.4,1.415,1.415,0,0,0-2.829,0,1.413,1.413,0,0,0,1.388,1.4M73.166,38.8a1.4,1.4,0,1,0,1.413-1.425A1.415,1.415,0,0,0,73.166,38.8M67.8,48.24a1.4,1.4,0,1,0-1.367,1.406A1.382,1.382,0,0,0,67.8,48.24M11.112,49.647a1.4,1.4,0,1,0-1.334-1.436,1.393,1.393,0,0,0,1.334,1.436M27.929,11.191a1.4,1.4,0,1,0,1.407-1.413,1.384,1.384,0,0,0-1.407,1.413M11.163,30.728a1.4,1.4,0,1,0-1.388-1.388,1.382,1.382,0,0,0,1.388,1.388m56.633-1.4a1.4,1.4,0,1,0-1.422,1.4,1.384,1.384,0,0,0,1.422-1.4M48.26,67.8a1.4,1.4,0,1,0-1.411-1.406A1.377,1.377,0,0,0,48.26,67.8M48.253,9.779a1.4,1.4,0,1,0,1.391,1.429,1.381,1.381,0,0,0-1.391-1.429M30.726,66.426A1.4,1.4,0,1,0,29.279,67.8a1.4,1.4,0,0,0,1.447-1.373" transform="translate(0.001 0)" stroke="rgba(0,0,0,0)" stroke-width="1" fill="url(#linear-gradient)"/>
      </g>
    </g>
    <path id="Icon_awesome-calendar-plus" data-name="Icon awesome-calendar-plus" d="M16.855,6.185H.464A.465.465,0,0,1,0,5.721V4.33A1.856,1.856,0,0,1,1.856,2.474H3.711V.464A.465.465,0,0,1,4.175,0H5.721a.465.465,0,0,1,.464.464v2.01h4.948V.464A.465.465,0,0,1,11.6,0h1.546a.465.465,0,0,1,.464.464v2.01h1.856A1.856,1.856,0,0,1,17.319,4.33V5.721A.465.465,0,0,1,16.855,6.185ZM.464,7.422H16.855a.465.465,0,0,1,.464.464V17.937a1.856,1.856,0,0,1-1.856,1.856H1.856A1.856,1.856,0,0,1,0,17.937V7.886A.465.465,0,0,1,.464,7.422ZM12.68,12.835a.465.465,0,0,0-.464-.464H9.9V10.051a.465.465,0,0,0-.464-.464H7.886a.465.465,0,0,0-.464.464v2.319H5.1a.465.465,0,0,0-.464.464v1.546a.465.465,0,0,0,.464.464H7.422v2.319a.465.465,0,0,0,.464.464H9.433a.465.465,0,0,0,.464-.464V14.845h2.319a.465.465,0,0,0,.464-.464Z" transform="translate(527.341 522.248)" fill="url(#linear-gradient)"/>
  </g>
</svg>
