<svg xmlns="http://www.w3.org/2000/svg" width="17.24" height="17.24" viewBox="0 0 17.24 17.24">
  <g id="allicon" transform="translate(0 0)">
    <g id="Group_485" data-name="Group 485" transform="translate(0 0)">
      <g id="Group_484" data-name="Group 484" transform="translate(0 0)">
        <path id="Path_465" data-name="Path 465" d="M17,5.161,8.888.077a.5.5,0,0,0-.536,0L.237,5.161a.5.5,0,0,0,0,.856l8.115,5.051a.5.5,0,0,0,.536,0L17,6.018a.5.5,0,0,0,0-.856Z" transform="translate(0 0)" fill="#fff"/>
      </g>
    </g>
    <g id="Group_487" data-name="Group 487" transform="translate(0 10.731)">
      <g id="Group_486" data-name="Group 486">
        <path id="Path_466" data-name="Path 466" d="M17,319.18l-.786-.492-7.329,4.559a.5.5,0,0,1-.536,0l-7.329-4.559-.786.492a.5.5,0,0,0,0,.856l8.115,5.085a.5.5,0,0,0,.536,0L17,320.036a.5.5,0,0,0,0-.856Z" transform="translate(0 -318.688)" fill="#fff"/>
      </g>
    </g>
    <g id="Group_489" data-name="Group 489" transform="translate(0 7.7)">
      <g id="Group_488" data-name="Group 488">
        <path id="Path_467" data-name="Path 467" d="M17,229.18l-.786-.492-7.329,4.559a.5.5,0,0,1-.536,0l-7.329-4.559-.786.492a.5.5,0,0,0,0,.856l8.115,5.051a.5.5,0,0,0,.536,0L17,230.036a.5.5,0,0,0,0-.856Z" transform="translate(0 -228.688)" fill="#fff"/>
      </g>
    </g>
  </g>
</svg>
