<svg width="24" height="24" viewBox="0 0 24 24" fill="none" xmlns="http://www.w3.org/2000/svg">
<path d="M12 1.25C17.93 1.25 22.75 6.07 22.75 12C22.75 17.93 17.93 22.75 12 22.75C6.07 22.75 1.25 17.93 1.25 12C1.25 6.07 6.07 1.25 12 1.25ZM12 21.25C17.1 21.25 21.25 17.1 21.25 12C21.25 6.9 17.1 2.75 12 2.75C6.9 2.75 2.75 6.9 2.75 12C2.75 17.1 6.9 21.25 12 21.25Z" fill="#29296E"/>
<path d="M11.9998 8.98812C12.1898 8.98812 12.3798 9.05812 12.5298 9.20812L16.0598 12.7381C16.3498 13.0281 16.3498 13.5081 16.0598 13.7981C15.7698 14.0881 15.2898 14.0881 14.9998 13.7981L11.9998 10.7981L8.99984 13.7981C8.70984 14.0881 8.22984 14.0881 7.93984 13.7981C7.64984 13.5081 7.64984 13.0281 7.93984 12.7381L11.4698 9.20812C11.6198 9.05812 11.8098 8.98812 11.9998 8.98812Z" fill="#29296E"/>
</svg>
