<svg xmlns="http://www.w3.org/2000/svg" width="19.909" height="12.029" viewBox="0 0 19.909 12.029">
  <path id="Icon_ionic-md-arrow-round-forward" data-name="Icon ionic-md-arrow-round-forward" d="M8.2,18.019l5-4.856a1.1,1.1,0,0,0,.326-.812v-.014a1.1,1.1,0,0,0-.326-.812L8.2,6.67a1.072,1.072,0,0,0-1.565,0,1.2,1.2,0,0,0,0,1.638l3.008,2.877H-5.263a1.135,1.135,0,0,0-1.112,1.16A1.128,1.128,0,0,0-5.266,13.5H9.642L6.634,16.381a1.2,1.2,0,0,0,0,1.638A1.076,1.076,0,0,0,8.2,18.019Z" transform="translate(6.375 -6.33)" fill="#fff"/>
</svg>
