<svg xmlns="http://www.w3.org/2000/svg" xmlns:xlink="http://www.w3.org/1999/xlink" width="35.168" height="35.227" viewBox="0 0 35.168 35.227">
  <defs>
    <clipPath id="clip-path">
      <rect id="Rectangle_26359" data-name="Rectangle 26359" width="35.168" height="35.227" fill="none"/>
    </clipPath>
  </defs>
  <g id="basic_info_icon" transform="translate(0 0)" opacity="0.2">
    <g id="Group_104718" data-name="Group 104718" transform="translate(0 0)" clip-path="url(#clip-path)">
      <path id="Path_29262" data-name="Path 29262" d="M7.073,0a2.84,2.84,0,0,1,.5.346A.955.955,0,0,1,7.755,1.43a.986.986,0,0,1-.972.632c-1.441,0-2.881,0-4.322,0h-.4V6.521c0,.754-.233,1.153-.76,1.3s-.944-.1-1.3-.734V.757A1.574,1.574,0,0,1,.755,0Z" transform="translate(0 0)"/>
      <path id="Path_29263" data-name="Path 29263" d="M54.948,0a1.316,1.316,0,0,1,.765,1.386c-.029,1.788-.008,3.577-.011,5.365a1.03,1.03,0,1,1-2.057.018c-.006-1.432,0-2.866,0-4.3V2.064H49.162c-.729,0-1.147-.261-1.274-.794C47.766.756,48,.35,48.63,0Z" transform="translate(-20.545 0)"/>
      <path id="Path_29264" data-name="Path 29264" d="M0,48.723A2.9,2.9,0,0,1,.372,48.2a.945.945,0,0,1,1.087-.153.991.991,0,0,1,.6.962q.005,2.166,0,4.331v.4H6.509c.753,0,1.149.232,1.3.761s-.1.945-.733,1.3H.756A1.583,1.583,0,0,1,0,55.053v-6.33" transform="translate(0 -20.583)"/>
      <path id="Path_29265" data-name="Path 29265" d="M48.628,55.819a2.9,2.9,0,0,1-.518-.373.946.946,0,0,1-.152-1.089.99.99,0,0,1,.96-.6q2.128-.005,4.256,0h.466v-.371q0-2.081,0-4.162c0-.8.384-1.26,1.039-1.254.64,0,1.021.466,1.021,1.238,0,1.742-.019,3.485.01,5.227a1.318,1.318,0,0,1-.765,1.386Z" transform="translate(-20.543 -20.592)"/>
      <path id="Path_29266" data-name="Path 29266" d="M22.353,10.618H32.722c.7,0,.866.169.866.878q0,2.992,0,5.985c0,.655-.18.832-.841.833-.9,0-1.808,0-2.712,0-.518,0-.727-.208-.732-.731-.006-.653,0-1.307,0-1.961,0-.508-.2-.713-.708-.717q-1.7-.009-3.4,0c-.5,0-.714.22-.714.716q0,7.929,0,15.858c0,.494.216.707.716.715.469.007.939,0,1.408,0a.569.569,0,0,1,.639.636q.015,1.5,0,2.993a.586.586,0,0,1-.669.649q-4.223.006-8.446,0c-.462,0-.681-.212-.685-.668q-.012-1.479,0-2.959c0-.447.21-.645.659-.652.469-.007.938,0,1.407,0s.7-.224.7-.7q0-7.946,0-15.892c0-.473-.219-.693-.7-.7q-1.716-.011-3.433,0c-.483,0-.683.214-.688.7-.006.653,0,1.307,0,1.96,0,.543-.211.746-.752.747q-1.39,0-2.781,0c-.542,0-.75-.2-.75-.748q0-3.1,0-6.192c0-.556.208-.754.781-.754H22.353" transform="translate(-4.765 -4.558)"/>
    </g>
  </g>
</svg>
