<svg xmlns="http://www.w3.org/2000/svg" width="19.5" height="21.5" viewBox="0 0 19.5 21.5">
  <g id="bell" transform="translate(-1258 -31.5)">
    <path id="Path_29088" data-name="Path 29088" d="M5.063,17H1.338A1.338,1.338,0,0,1,0,15.662v-.873a1.906,1.906,0,0,1,.558-1.347A4.925,4.925,0,0,0,2,9.961V7A7,7,0,0,1,16,7V9.961a4.925,4.925,0,0,0,1.442,3.481A1.906,1.906,0,0,1,18,14.789v.873A1.338,1.338,0,0,1,16.662,17H12.937a3.918,3.918,0,0,1-.432,1.928,4,4,0,0,1-7.01,0A3.918,3.918,0,0,1,5.063,17M14,9.961a6.921,6.921,0,0,0,2,4.867V15H2v-.172A6.921,6.921,0,0,0,4,9.961V7A5,5,0,0,1,14,7ZM10.937,17H7.063a1.978,1.978,0,0,0,.184.964A2,2,0,0,0,8.993,19h.014a2,2,0,0,0,1.746-1.036A1.978,1.978,0,0,0,10.937,17" transform="translate(1258 32)" fill="#434950" fill-rule="evenodd"/>
    <path id="Path_29089" data-name="Path 29089" d="M15,0a4,4,0,1,1-4,4,4,4,0,0,1,4-4" transform="translate(1258 32)" fill="#f15642" stroke="#fff" stroke-width="1"/>
  </g>
</svg>
