<svg id="brandIcon" xmlns="http://www.w3.org/2000/svg" xmlns:xlink="http://www.w3.org/1999/xlink" width="24" height="23.997" viewBox="0 0 24 23.997">
  <defs>
    <clipPath id="clip-path">
      <rect id="Rectangle_26481" data-name="Rectangle 26481" width="24" height="23.997" fill="#363b46" stroke="#363b46" stroke-width="0.3"/>
    </clipPath>
  </defs>
  <g id="Group_105019" data-name="Group 105019" clip-path="url(#clip-path)">
    <path id="Path_29370" data-name="Path 29370" d="M14.808,0c.058.022.117.041.173.068a.458.458,0,0,1,.256.524A.442.442,0,0,1,14.8.95a1.872,1.872,0,0,0-.4-.006,4.105,4.105,0,0,0-.944.306,2.794,2.794,0,0,1-2.916,0,1.826,1.826,0,0,0-2.675.719,2.771,2.771,0,0,1-2.6,1.45A1.8,1.8,0,0,0,3.44,4.931c-.043.259-.008.531-.041.794A2.73,2.73,0,0,1,1.946,7.889a1.763,1.763,0,0,0-1,1.72,1.928,1.928,0,0,0,.253.838,2.858,2.858,0,0,1-.007,3.1,1.783,1.783,0,0,0,.675,2.508,2.852,2.852,0,0,1,1.551,2.708,1.778,1.778,0,0,0,1.812,1.809,2.846,2.846,0,0,1,2.705,1.554,1.786,1.786,0,0,0,2.511.671,2.832,2.832,0,0,1,3.1,0,1.784,1.784,0,0,0,2.51-.673,2.849,2.849,0,0,1,2.706-1.552,1.777,1.777,0,0,0,1.811-1.811,2.846,2.846,0,0,1,1.552-2.706,1.785,1.785,0,0,0,.673-2.51,2.836,2.836,0,0,1,0-3.1,1.79,1.79,0,0,0-.691-2.523A2.811,2.811,0,0,1,20.574,5.28a1.8,1.8,0,0,0-1.858-1.864,3.566,3.566,0,0,1-.605-.045.443.443,0,0,1-.348-.465.436.436,0,0,1,.412-.433,4.335,4.335,0,0,1,1.548.176A2.721,2.721,0,0,1,21.507,5.21a2.017,2.017,0,0,0,1.124,1.942,2.71,2.71,0,0,1,1,3.724,2.03,2.03,0,0,0,0,2.244,2.709,2.709,0,0,1-1,3.723,2.027,2.027,0,0,0-1.122,1.943,2.706,2.706,0,0,1-2.726,2.722,2.008,2.008,0,0,0-1.928,1.106,2.724,2.724,0,0,1-3.78.992,1.934,1.934,0,0,0-2.138-.007A2.739,2.739,0,0,1,7.1,22.548a1.885,1.885,0,0,0-1.8-1.037,2.736,2.736,0,0,1-2.817-2.827A1.869,1.869,0,0,0,1.456,16.9,2.716,2.716,0,0,1,.042,14.94,1.07,1.07,0,0,0,0,14.808v-.7a5.557,5.557,0,0,1,.55-1.352,1.606,1.606,0,0,0,0-1.513A5.573,5.573,0,0,1,0,9.888v-.7c.015-.051.034-.1.045-.155A2.7,2.7,0,0,1,1.434,7.106,1.9,1.9,0,0,0,2.482,5.289,2.731,2.731,0,0,1,5.29,2.482,1.879,1.879,0,0,0,7.1,1.433,2.48,2.48,0,0,1,8.2.347,8.524,8.524,0,0,1,9.185,0h.7c.449.186.9.369,1.348.559a1.859,1.859,0,0,0,1.5.009c.456-.19.913-.378,1.37-.568Z" fill="#363b46" stroke="#363b46" stroke-width="0.3"/>
    <path id="Path_29371" data-name="Path 29371" d="M99.8,49.059c0,.295-.087.443-.266.526a.492.492,0,0,1-.557-.114,15.4,15.4,0,0,0-1.411-1.114,8.144,8.144,0,0,0-9.925.963c-.057.054-.111.11-.17.161a.468.468,0,1,1-.647-.673,8.8,8.8,0,0,1,2.157-1.592,9.084,9.084,0,0,1,10.587,1.525,1.863,1.863,0,0,1,.231.317" transform="translate(-81.239 -43.274)" fill="#363b46" stroke="#363b46" stroke-width="0.3"/>
    <path id="Path_29372" data-name="Path 29372" d="M92.705,285.159a8.764,8.764,0,0,1-5.861-2.588.492.492,0,0,1-.169-.6.469.469,0,0,1,.782-.1,8.736,8.736,0,0,0,1.754,1.319,8.171,8.171,0,0,0,9.559-1.155c.068-.064.133-.132.2-.193a.464.464,0,0,1,.672.007.469.469,0,0,1-.031.671,8.72,8.72,0,0,1-1.811,1.4,9.518,9.518,0,0,1-5.1,1.242" transform="translate(-81.206 -264.063)" fill="#363b46" stroke="#363b46" stroke-width="0.3"/>
    <path id="Path_29373" data-name="Path 29373" d="M48.9,156.15a1.5,1.5,0,0,1,.522,1.373,1.473,1.473,0,0,1-1.4,1.252c-.437.016-.874.01-1.311.005a.449.449,0,0,1-.487-.481q-.008-1.862,0-3.724a.45.45,0,0,1,.492-.477c.3-.006.61.016.913,0A1.351,1.351,0,0,1,48.9,156.15m-1.722.614v1.076c.285,0,.55.012.814,0a.536.536,0,0,0-.029-1.071c-.256-.007-.513,0-.785,0m-.008-.944c.226,0,.429.012.629,0a.391.391,0,0,0-.015-.781c-.2-.01-.4,0-.614,0Z" transform="translate(-43.323 -144.442)" fill="#316cf4" stroke="#316cf4" stroke-width="0.3"/>
    <path id="Path_29374" data-name="Path 29374" d="M224.373,156.918c.006-.124.012-.2.012-.271q0-.9,0-1.8a1.691,1.691,0,0,1,0-.187.471.471,0,0,1,.479-.448.449.449,0,0,1,.45.47q.008,1.814,0,3.629a.511.511,0,0,1-.959.279c-.479-.7-.953-1.408-1.43-2.111-.042-.061-.087-.12-.164-.225-.007.13-.014.2-.015.279,0,.609,0,1.217,0,1.826,0,.333-.177.534-.455.54s-.478-.2-.479-.544q-.006-1.8,0-3.605a.469.469,0,0,1,.354-.514.483.483,0,0,1,.55.255q.73,1.088,1.466,2.172c.05.075.1.146.187.261" transform="translate(-207.927 -144.554)" fill="#316cf4" stroke="#316cf4" stroke-width="0.3"/>
    <path id="Path_29375" data-name="Path 29375" d="M106.8,157.523c0,.278.011.557,0,.834a.464.464,0,1,1-.927-.023c-.01-.335,0-.671,0-1.007q0-1.288,0-2.577c0-.463.156-.617.62-.616a7.484,7.484,0,0,1,.912.018,1.426,1.426,0,0,1,.372,2.753l-.139.065c.307.35.615.681.9,1.034a.571.571,0,0,1,.137.417.667.667,0,0,1-.309.365.4.4,0,0,1-.5-.143c-.281-.314-.557-.632-.836-.949-.055-.062-.112-.124-.167-.186l-.053.014m.024-2.443v1c.318.014.626.056.839-.237a.416.416,0,0,0,.015-.5c-.208-.318-.526-.272-.853-.257" transform="translate(-99.238 -144.48)" fill="#316cf4" stroke="#316cf4" stroke-width="0.3"/>
    <path id="Path_29376" data-name="Path 29376" d="M287.2,156.485c0-.585,0-1.17,0-1.754,0-.417.163-.575.585-.575a6.837,6.837,0,0,1,.794.016,1.756,1.756,0,0,1,1.466,1.057,2.832,2.832,0,0,1-.018,2.528,1.837,1.837,0,0,1-1.725,1.08c-.195,0-.39.006-.585,0a.463.463,0,0,1-.51-.508c0-.616,0-1.232,0-1.848Zm.954,1.408a.975.975,0,0,0,.964-.412,2,2,0,0,0,.033-1.94.9.9,0,0,0-1-.415Z" transform="translate(-269.215 -144.502)" fill="#316cf4" stroke="#316cf4" stroke-width="0.3"/>
    <path id="Path_29377" data-name="Path 29377" d="M159.619,158.292c-.037.1-.068.186-.1.271a.467.467,0,1,1-.881-.307c.2-.614.413-1.225.619-1.838.194-.576.386-1.152.58-1.728.106-.313.285-.467.54-.47a.56.56,0,0,1,.548.456q.592,1.761,1.179,3.524a.484.484,0,0,1-.141.609.414.414,0,0,1-.541,0,.712.712,0,0,1-.206-.326.239.239,0,0,0-.284-.2c-.436.011-.872,0-1.313,0m1.211-.944-.45-1.34-.447,1.34Z" transform="translate(-148.676 -144.565)" fill="#316cf4" stroke="#316cf4" stroke-width="0.3"/>
    <path id="Path_29378" data-name="Path 29378" d="M173.587,83.735c.337-.113.541-.068.677.143s.082.437-.175.7c.255.266.31.48.179.694s-.351.263-.657.152a1.2,1.2,0,0,1-.177.357.583.583,0,0,1-.35.145c-.253.015-.385-.141-.476-.5-.332.114-.548.063-.677-.159s-.069-.441.187-.672c-.264-.3-.313-.486-.185-.7s.328-.264.678-.166c.081-.346.254-.519.507-.508s.4.176.469.519" transform="translate(-161.105 -78.006)" fill="#363b46" stroke="#363b46" stroke-width="0.3"/>
    <path id="Path_29379" data-name="Path 29379" d="M172.129,258.048c-.264-.253-.322-.462-.2-.681s.344-.277.675-.164c.106-.381.252-.523.523-.51.253.012.392.164.459.5.374-.093.564-.044.69.178s.066.418-.188.673c.257.267.312.482.177.7s-.344.262-.663.15c-.119.376-.277.531-.528.514s-.389-.177-.462-.5c-.364.095-.567.04-.69-.185s-.058-.429.2-.667" transform="translate(-161.109 -240.623)" fill="#363b46" stroke="#363b46" stroke-width="0.3"/>
    <path id="Path_29380" data-name="Path 29380" d="M257.122,20.335a.455.455,0,0,1-.46.459.464.464,0,1,1,.007-.927.46.46,0,0,1,.454.468" transform="translate(-240.152 -18.623)" fill="#363b46" stroke="#363b46" stroke-width="0.3"/>
  </g>
</svg>
