<svg xmlns="http://www.w3.org/2000/svg" xmlns:xlink="http://www.w3.org/1999/xlink" width="39.867" height="45.563" viewBox="0 0 39.867 45.563">
  <defs>
    <linearGradient id="linear-gradient" x1="-0.458" y1="1.814" x2="1.235" y2="-0.366" gradientUnits="objectBoundingBox">
      <stop offset="0" stop-color="#fff"/>
      <stop offset="0.308" stop-color="#67e0c8"/>
      <stop offset="0.697" stop-color="#2b6bf3"/>
      <stop offset="1" stop-color="#154092"/>
    </linearGradient>
  </defs>
  <path id="dateIcon2" d="M38.8,14.238H1.068A1.071,1.071,0,0,1,0,13.17v-3.2A4.273,4.273,0,0,1,4.271,5.7H8.543V1.068A1.071,1.071,0,0,1,9.611,0h3.56a1.071,1.071,0,0,1,1.068,1.068V5.7H25.629V1.068A1.071,1.071,0,0,1,26.7,0h3.56a1.071,1.071,0,0,1,1.068,1.068V5.7H35.6a4.273,4.273,0,0,1,4.271,4.271v3.2A1.071,1.071,0,0,1,38.8,14.238ZM1.068,17.086H38.8a1.071,1.071,0,0,1,1.068,1.068V41.291A4.273,4.273,0,0,1,35.6,45.563H4.271A4.273,4.273,0,0,1,0,41.291V18.154A1.071,1.071,0,0,1,1.068,17.086ZM29.188,29.544a1.071,1.071,0,0,0-1.068-1.068H22.781V23.137a1.071,1.071,0,0,0-1.068-1.068h-3.56a1.071,1.071,0,0,0-1.068,1.068v5.339H11.747a1.071,1.071,0,0,0-1.068,1.068V33.1a1.071,1.071,0,0,0,1.068,1.068h5.339v5.339a1.071,1.071,0,0,0,1.068,1.068h3.56a1.071,1.071,0,0,0,1.068-1.068V34.172h5.339A1.071,1.071,0,0,0,29.188,33.1Z" fill="url(#linear-gradient)"/>
</svg>
