<svg id="eventIcon" xmlns="http://www.w3.org/2000/svg" xmlns:xlink="http://www.w3.org/1999/xlink" width="24" height="24" viewBox="0 0 24 24">
  <defs>
    <clipPath id="clip-path">
      <rect id="Rectangle_26276" data-name="Rectangle 26276" width="24" height="24" fill="#363b46"/>
    </clipPath>
  </defs>
  <g id="Group_104628" data-name="Group 104628" clip-path="url(#clip-path)">
    <path id="Path_29255" data-name="Path 29255" d="M6.18,1.636c0-.321-.023-.607.005-.888A.872.872,0,0,1,7.11,0a.883.883,0,0,1,.881.767c.017.168.01.339.012.508,0,.106,0,.212,0,.339H16c0-.24,0-.469,0-.7A.885.885,0,0,1,16.9,0a.9.9,0,0,1,.932.919c.006.229,0,.459,0,.717.505,0,.973,0,1.44,0A4.646,4.646,0,0,1,23.8,4.815a4.574,4.574,0,0,1,.192,1.292q.02,6.708.006,13.416A4.567,4.567,0,0,1,19.188,24Q11.994,24,4.8,24A4.568,4.568,0,0,1,.006,19.539Q-.006,12.818.005,6.1A4.562,4.562,0,0,1,4.8,1.637c.439,0,.878,0,1.384,0M6.166,3.351c-.5,0-.945-.006-1.394,0A2.777,2.777,0,0,0,1.844,6.111q-.01,6.709,0,13.417a2.783,2.783,0,0,0,2.964,2.754q7.194.006,14.389,0a2.779,2.779,0,0,0,2.957-2.732q.017-6.735,0-13.471A2.606,2.606,0,0,0,20.6,3.656a6.119,6.119,0,0,0-2.77-.3c0,.262,0,.484,0,.705a.918.918,0,1,1-1.836,0c-.005-.229,0-.458,0-.7H8C8,3.485,8,3.59,8,3.7c0,.882-.285,1.282-.911,1.285s-.926-.4-.927-1.274c0-.105,0-.211,0-.356" transform="translate(0 0)" fill="#363b46"/>
    <path id="Path_29257" data-name="Path 29257" d="M70.861,99.918a10.348,10.348,0,0,1-1.1-.338c-.538-.229-1.056-.5-1.576-.767a.747.747,0,0,0-.732,0c-.571.289-1.141.583-1.731.837a2.361,2.361,0,0,1-2.432-.263,2.037,2.037,0,0,1-.889-2.1c.083-.511.166-1.024.282-1.529a.813.813,0,0,0-.307-.9c-.417-.34-.807-.712-1.195-1.082a2.017,2.017,0,0,1-.585-2.29,2.237,2.237,0,0,1,1.928-1.483c.6-.087,1.21-.174,1.816-.251a.639.639,0,0,0,.527-.361c.259-.5.519-.994.785-1.488a2.462,2.462,0,0,1,4.323-.006q.394.728.772,1.464a.671.671,0,0,0,.565.393c.607.072,1.212.162,1.816.252a2.232,2.232,0,0,1,1.9,1.474,2.011,2.011,0,0,1-.558,2.272c-.4.393-.818.779-1.255,1.139a.766.766,0,0,0-.278.838c.11.525.2,1.054.292,1.582a2.349,2.349,0,0,1-2.37,2.617m-3.051-3a10.614,10.614,0,0,1,1.131.345c.555.237,1.089.519,1.627.789a.576.576,0,0,0,.643-.018.5.5,0,0,0,.2-.55c-.09-.447-.148-.9-.257-1.342a2.371,2.371,0,0,1,.924-2.613c.363-.289.686-.621,1.031-.931a.5.5,0,0,0,.2-.55.554.554,0,0,0-.509-.373c-.568-.076-1.135-.158-1.7-.227a2.4,2.4,0,0,1-1.956-1.274c-.266-.494-.53-.988-.786-1.487a.575.575,0,0,0-1.076.008q-.385.747-.786,1.487A2.3,2.3,0,0,1,64.75,91.41c-.612.1-1.229.173-1.844.254-.26.034-.485.106-.578.367a.516.516,0,0,0,.219.591c.421.377.834.762,1.254,1.14a2.138,2.138,0,0,1,.724,2.071q-.142.818-.3,1.633a.506.506,0,0,0,.2.572.582.582,0,0,0,.644.009c.531-.265,1.056-.544,1.6-.776a11.166,11.166,0,0,1,1.144-.353" transform="translate(-55.812 -80.411)" fill="#316cf4"/>
  </g>
</svg>
