<svg width="24" height="24" viewBox="0 0 24 24" fill="none" xmlns="http://www.w3.org/2000/svg">
<path d="M1.74973 15.2605L1.74973 8.74047C1.74973 3.83047 3.84973 1.73047 8.75973 1.73047L8.88973 1.73047C13.3297 1.73047 15.4697 3.48047 15.8397 7.40047C15.8697 7.80047 15.5697 8.18047 15.1597 8.22047C14.7497 8.26047 14.3797 7.96047 14.3397 7.54047C14.0497 4.40047 12.5697 3.23047 8.87973 3.23047L8.74973 3.23047C4.67973 3.23047 3.23973 4.67047 3.23973 8.74047L3.23973 15.2605C3.23973 19.3305 4.67973 20.7705 8.74973 20.7705L8.87973 20.7705C12.5897 20.7705 14.0697 19.5805 14.3397 16.3805C14.3797 15.9705 14.7397 15.6605 15.1497 15.7005C15.5597 15.7405 15.8697 16.0905 15.8297 16.5105C15.4897 20.4905 13.3397 22.2705 8.86973 22.2705L8.73973 22.2705C3.84973 22.2705 1.74973 20.1705 1.74973 15.2605Z" fill="#151517"/>
<path d="M8.25086 12C8.25086 11.59 8.59086 11.25 9.00086 11.25L20.3809 11.25C20.7909 11.25 21.1309 11.59 21.1309 12C21.1309 12.41 20.7909 12.75 20.3809 12.75L9.00086 12.75C8.59086 12.75 8.25086 12.41 8.25086 12Z" fill="#151517"/>
<path d="M17.4005 15.3498C17.4005 15.1598 17.4705 14.9698 17.6205 14.8198L20.4405 11.9998L17.6205 9.17984C17.3305 8.88984 17.3305 8.40984 17.6205 8.11984C17.9105 7.82984 18.3905 7.82984 18.6805 8.11984L22.0305 11.4698C22.3205 11.7598 22.3205 12.2398 22.0305 12.5298L18.6805 15.8798C18.3905 16.1698 17.9105 16.1698 17.6205 15.8798C17.4705 15.7398 17.4005 15.5398 17.4005 15.3498Z" fill="#151517"/>
</svg>
