<svg width="64" height="73" viewBox="0 0 64 73" fill="none" xmlns="http://www.w3.org/2000/svg">
<path d="M35.025 29.61C14.2057 43.7925 16.6075 59.5229 20.4108 65.6154C-14.288 50.366 5.33984 23.4344 19.2386 11.6465L22.9117 16.1177C21.505 16.9283 19.4262 19.5849 22.3646 23.7267C25.3031 27.8685 29.4242 26.2892 31.1175 24.9818L35.025 29.61Z" fill="#01A3F4"/>
<path d="M34.4579 55.0365C13.6386 40.854 10.0586 22.8512 13.8619 16.7588C-12.6988 38.9144 4.60441 61.3643 18.6715 73L22.3446 68.5287C20.9379 67.7182 18.8591 65.0616 21.7975 60.9198C24.736 56.778 28.8571 58.3573 30.5504 59.6647L34.4579 55.0365Z" fill="url(#paint0_linear_2101_10782)"/>
<path d="M28.975 43.39C49.7943 29.2075 47.3925 13.4771 43.5892 7.38464C78.288 22.634 58.6602 49.5656 44.7614 61.3535L41.0883 56.8823C42.495 56.0717 44.5738 53.4151 41.6354 49.2733C38.6969 45.1315 34.5758 46.7108 32.8825 48.0182L28.975 43.39Z" fill="#01A3F4"/>
<path d="M29.5421 17.9635C50.3614 32.146 53.9414 50.1488 50.1381 56.2412C76.6988 34.0856 59.3956 11.6357 45.3285 0L41.6554 4.47126C43.0621 5.28184 45.1409 7.93844 42.2025 12.0802C39.264 16.222 35.1429 14.6427 33.4496 13.3353L29.5421 17.9635Z" fill="url(#paint1_linear_2101_10782)"/>
<defs>
<linearGradient id="paint0_linear_2101_10782" x1="17.2289" y1="73" x2="7.67125" y2="26.132" gradientUnits="userSpaceOnUse">
<stop stop-color="#023F98"/>
<stop offset="1" stop-color="#005CC1"/>
</linearGradient>
<linearGradient id="paint1_linear_2101_10782" x1="46.7711" y1="0" x2="53.9719" y2="53.685" gradientUnits="userSpaceOnUse">
<stop stop-color="#41621D"/>
<stop offset="1" stop-color="#8CCD11"/>
</linearGradient>
</defs>
</svg>
