<svg xmlns="http://www.w3.org/2000/svg" width="14.358" height="20.018" viewBox="0 0 14.358 20.018">
  <g id="name-icon" transform="translate(178.9 1665.421)">
    <path id="Ellipse_33" data-name="Ellipse 33" d="M3.721-.9A4.621,4.621,0,1,1-.9,3.721,4.621,4.621,0,0,1,3.721-.9Zm0,7.442A2.821,2.821,0,1,0,.9,3.721,2.821,2.821,0,0,0,3.721,6.542Z" transform="translate(-175.442 -1664.521)" fill="#5acafa"/>
    <path id="Rectangle_110" data-name="Rectangle 110" d="M3.935-.9H8.623a4.835,4.835,0,0,1,0,9.67H3.935a4.835,4.835,0,1,1,0-9.67ZM8.623,6.97a3.035,3.035,0,0,0,0-6.07H3.935a3.035,3.035,0,0,0,0,6.07Z" transform="translate(-178 -1654.173)" fill="#5acafa"/>
  </g>
</svg>
