<svg xmlns="http://www.w3.org/2000/svg" width="24.527" height="26.962" viewBox="0 0 24.527 26.962">
  <g id="notifyIcon" transform="translate(-961.736 10867.98)">
    <path id="Bell" d="M-4014.232-14.813a4.568,4.568,0,0,1-3.2-1.3,4.574,4.574,0,0,1-1.4-3.145h-4.287a3.083,3.083,0,0,1-2.261-.967,3.132,3.132,0,0,1-.859-2.137,3.086,3.086,0,0,1,.836-2.128l.111-.118.023-.025.053-.056c.82-.862,1.942-2.042,1.942-5.828a8.874,8.874,0,0,1,1.634-5.166,8.973,8.973,0,0,1,4.3-3.25,3.106,3.106,0,0,1,.993-2.018,3.1,3.1,0,0,1,2.109-.825,3.1,3.1,0,0,1,2.109.825,3.1,3.1,0,0,1,.993,2.018,9.212,9.212,0,0,1,1.444.667,6.032,6.032,0,0,0-1.085,1.272,7.678,7.678,0,0,0-1.981-.7v-.964a1.482,1.482,0,0,0-1.48-1.48,1.482,1.482,0,0,0-1.48,1.48v.964a7.312,7.312,0,0,0-5.92,7.18c0,4.44-1.5,6.014-2.391,6.955l-.022.024-.153.162a1.442,1.442,0,0,0-.4,1,1.477,1.477,0,0,0,1.486,1.481h17.76a1.475,1.475,0,0,0,1.485-1.481,1.434,1.434,0,0,0-.4-1c-.055-.06-.114-.121-.175-.185a7.466,7.466,0,0,1-2.176-4.283,6.063,6.063,0,0,0,.911.069,6.084,6.084,0,0,0,.756-.047,5.785,5.785,0,0,0,1.692,3.134l.089.095.1.1a3.086,3.086,0,0,1,.837,2.129,3.133,3.133,0,0,1-.859,2.137,3.082,3.082,0,0,1-2.261.967h-4.287a4.574,4.574,0,0,1-1.4,3.145A4.569,4.569,0,0,1-4014.232-14.813Zm-2.961-4.6a2.965,2.965,0,0,0,2.961,2.962,2.965,2.965,0,0,0,2.961-2.962Z" transform="translate(4987.968 -10826.205)" fill="#363b46"/>
    <circle id="Badge" cx="4" cy="4" r="4" transform="translate(978.264 -10863.98)" fill="#316cf4"/>
  </g>
</svg>
