<svg width="24" height="24" viewBox="0 0 24 24" fill="none" xmlns="http://www.w3.org/2000/svg">
<path d="M22 12C22 17.52 17.52 22 12 22C6.48 22 3.11 16.44 3.11 16.44M3.11 16.44H7.63M3.11 16.44V21.44M2 12C2 6.48 6.44 2 12 2C18.67 2 22 7.56 22 7.56M22 7.56V2.56M22 7.56H17.56" stroke="#151517" stroke-width="1.5" stroke-linecap="round" stroke-linejoin="round"/>
<path d="M12 13C11.44 13 11 12.55 11 12C11 11.45 11.45 11 12 11C12.55 11 13 11.45 13 12C13 12.55 12.56 13 12 13Z" fill="#151517"/>
<path d="M16 13C15.44 13 15 12.55 15 12C15 11.45 15.45 11 16 11C16.55 11 17 11.45 17 12C17 12.55 16.56 13 16 13Z" fill="#151517"/>
<path d="M8 13C7.44 13 7 12.55 7 12C7 11.45 7.45 11 8 11C8.55 11 9 11.45 9 12C9 12.55 8.56 13 8 13Z" fill="#151517"/>
</svg>
