<svg xmlns="http://www.w3.org/2000/svg" width="24.003" height="24.003" viewBox="0 0 24.003 24.003">
  <g id="reportsIcon" transform="translate(-1 -1)">
    <g id="Group_73874" data-name="Group 73874" transform="translate(1 1)">
      <path id="Path_29081" data-name="Path 29081" d="M6.6,21H1.8a.756.756,0,0,0-.8.8v6.4a.756.756,0,0,0,.8.8H6.6a.756.756,0,0,0,.8-.8V21.8A.756.756,0,0,0,6.6,21Zm-.8,6.4H2.6V22.6H5.8Z" transform="translate(-1 -4.998)" fill="#363b46"/>
      <path id="Path_29082" data-name="Path 29082" d="M17.6,15H12.8a.756.756,0,0,0-.8.8V27a.756.756,0,0,0,.8.8h4.8a.756.756,0,0,0,.8-.8V15.8A.756.756,0,0,0,17.6,15Zm-.8,11.2H13.6V16.6h3.2Z" transform="translate(-3.199 -3.799)" fill="#363b46"/>
      <path id="Path_29083" data-name="Path 29083" d="M28.6,9H23.8a.756.756,0,0,0-.8.8v16a.756.756,0,0,0,.8.8h4.8a.756.756,0,0,0,.8-.8V9.8A.756.756,0,0,0,28.6,9Zm-.8,16H24.6V10.6h3.2Z" transform="translate(-5.398 -2.599)" fill="#363b46"/>
      <path id="Path_29084" data-name="Path 29084" d="M1.806,16.042a.6.6,0,0,0,.4-.08l20.082-12-.64,1.28a.794.794,0,0,0,.4,1.04.481.481,0,0,0,.32.08.769.769,0,0,0,.72-.48l1.84-3.68h0V1.88h0V1.4l-.08-.08a.078.078,0,0,0-.08-.08.078.078,0,0,1-.08-.08l-.08-.08L24.529,1H19.889a.756.756,0,0,0-.8.8.756.756,0,0,0,.8.8h1.44L1.406,14.522a.787.787,0,0,0-.24,1.12A.713.713,0,0,0,1.806,16.042Z" transform="translate(-1.006 -1)" fill="#316cf4"/>
    </g>
  </g>
</svg>
