<svg xmlns="http://www.w3.org/2000/svg" width="35.622" height="28.498" viewBox="0 0 35.622 28.498">
  <path id="tagsIcon" d="M27.715,12.576,15.922.783A2.672,2.672,0,0,0,14.033,0H2.672A2.672,2.672,0,0,0,0,2.672V14.033a2.672,2.672,0,0,0,.783,1.889L12.576,27.715a2.672,2.672,0,0,0,3.778,0L27.715,16.354a2.672,2.672,0,0,0,0-3.778ZM6.234,8.906A2.672,2.672,0,1,1,8.906,6.234,2.672,2.672,0,0,1,6.234,8.906ZM34.84,16.354,23.478,27.715a2.672,2.672,0,0,1-3.778,0l-.02-.02,9.688-9.688a5.009,5.009,0,0,0,0-7.084L18.445,0h2.712a2.672,2.672,0,0,1,1.889.783L34.84,12.576a2.672,2.672,0,0,1,0,3.778Z" opacity="0.2"/>
</svg>
