<svg xmlns="http://www.w3.org/2000/svg" xmlns:xlink="http://www.w3.org/1999/xlink" width="32.728" height="35.227" viewBox="0 0 32.728 35.227">
  <defs>
    <clipPath id="clip-path">
      <rect id="Rectangle_26388" data-name="Rectangle 26388" width="32.728" height="35.227" transform="translate(0 0)" fill="none"/>
    </clipPath>
  </defs>
  <g id="terms_conditions_icon" transform="translate(0 0)" opacity="0.2">
    <g id="Group_104738" data-name="Group 104738" transform="translate(0 0.001)" clip-path="url(#clip-path)">
      <path id="Path_29298" data-name="Path 29298" d="M0,4.892c.054-.255.1-.512.163-.765A5.379,5.379,0,0,1,5.351.014q8.819-.026,17.638,0a5.355,5.355,0,0,1,5.38,5.312c.044,3.19.016,6.382.009,9.573a1.252,1.252,0,1,1-2.5-.029c0-3.107,0-6.215,0-9.322A2.916,2.916,0,0,0,23.5,2.563a3.69,3.69,0,0,0-.713-.048q-8.586,0-17.172,0A2.912,2.912,0,0,0,2.51,5.6c0,7.386.015,14.772-.012,22.158A3.032,3.032,0,0,0,5.63,30.884c2.58-.051,5.162-.015,7.743-.009a2.239,2.239,0,0,1,.7.1,1.212,1.212,0,0,1,.787,1.337A1.224,1.224,0,0,1,13.7,33.372c-.083,0-.167,0-.251,0q-3.961,0-7.923,0A5.389,5.389,0,0,1,.064,28.721,2.336,2.336,0,0,0,0,28.486V4.892" transform="translate(0 0)"/>
      <path id="Path_29299" data-name="Path 29299" d="M44.7,60.506c-.731-.163-1.482-.266-2.189-.5a8.915,8.915,0,1,1,3.86.438,1.583,1.583,0,0,0-.237.062Zm7.537-8.943a6.845,6.845,0,1,0-6.864,6.855,6.831,6.831,0,0,0,6.864-6.855" transform="translate(-21.609 -25.28)"/>
      <path id="Path_29300" data-name="Path 29300" d="M22.3,37.355q-3.19,0-6.379,0a2.663,2.663,0,0,1-.64-.056,1.245,1.245,0,0,1,.22-2.433c.107-.01.215-.011.322-.011q6.487,0,12.973,0a2.093,2.093,0,0,1,.533.05,1.241,1.241,0,0,1-.15,2.421,3.732,3.732,0,0,1-.536.028q-3.172,0-6.344,0" transform="translate(-8.527 -20.662)"/>
      <path id="Path_29301" data-name="Path 29301" d="M22.281,20.947q-3.279,0-6.559,0a1.233,1.233,0,0,1-1.338-1.334,1.217,1.217,0,0,1,1.089-1.143,2.833,2.833,0,0,1,.322-.015q6.5,0,13.009,0a1.258,1.258,0,0,1,1.385.982,1.224,1.224,0,0,1-1.136,1.5c-.489.024-.979.008-1.469.009h-5.3" transform="translate(-8.526 -10.94)"/>
      <path id="Path_29302" data-name="Path 29302" d="M18.173,51.244c.787,0,1.575,0,2.362,0a1.251,1.251,0,1,1,.037,2.5q-2.452.021-4.9,0a1.248,1.248,0,0,1-.422-2.434,1.912,1.912,0,0,1,.529-.061c.8-.006,1.6,0,2.4,0" transform="translate(-8.527 -30.379)"/>
      <path id="Path_29303" data-name="Path 29303" d="M52.6,59.1c-.754-.772-1.407-1.436-2.054-2.1a1.043,1.043,0,0,1,.564-1.785,1.079,1.079,0,0,1,.963.364c.643.623,1.3,1.236,1.9,1.807.6-.568,1.253-1.177,1.895-1.8a1.092,1.092,0,0,1,.93-.364,1.039,1.039,0,0,1,.618,1.764q-.73.765-1.478,1.513c-.16.16-.345.295-.544.463.7.715,1.334,1.371,1.975,2.024a1.053,1.053,0,0,1,.339,1,1.036,1.036,0,0,1-1.765.513c-.542-.522-1.057-1.072-1.581-1.612-.116-.119-.222-.249-.334-.376-.4.383-.765.733-1.126,1.089-.272.269-.532.549-.8.818a1.064,1.064,0,0,1-1.559.082,1.024,1.024,0,0,1,.066-1.529c.648-.633,1.322-1.24,2-1.873" transform="translate(-29.771 -32.726)"/>
    </g>
  </g>
</svg>
