<svg xmlns="http://www.w3.org/2000/svg" xmlns:xlink="http://www.w3.org/1999/xlink" width="31.928" height="31.917" viewBox="0 0 31.928 31.917">
  <defs>
    <clipPath id="clip-path">
      <rect id="Rectangle_26377" data-name="Rectangle 26377" width="31.928" height="31.917"/>
    </clipPath>
  </defs>
  <g id="upload_image_icon" opacity="0.2">
    <g id="Group_104725" data-name="Group 104725" clip-path="url(#clip-path)">
      <path id="Path_29277" data-name="Path 29277" d="M13.465,0H17.08c.091.015.182.035.274.044,1.87.173,3.745.3,5.608.527a8.391,8.391,0,0,1,6.825,6.053,30.686,30.686,0,0,1,.689,5.836,52.035,52.035,0,0,1-.116,7.284,1.085,1.085,0,0,0,.217.772A6.938,6.938,0,0,1,31.749,26.2,7.22,7.22,0,0,1,20.355,30.48a.669.669,0,0,0-.393-.118c-.591.025-1.181.086-1.772.114A55.37,55.37,0,0,1,7.534,29.99,8.475,8.475,0,0,1,.7,23.633C.4,22.1.3,20.527.127,18.971.058,18.344.041,17.711,0,17.081V13.466c.015-.1.036-.2.046-.3C.218,11.305.34,9.441.571,7.591A8.318,8.318,0,0,1,6.947.7c1.531-.3,3.1-.4,4.658-.57C12.222.058,12.845.041,13.465,0m4.827,28.146c-1.4-3.2-1.127-6.112,1.316-8.55s5.358-2.7,8.481-1.331c.008-.064.018-.113.02-.162a50.658,50.658,0,0,0-.481-10.281,6.063,6.063,0,0,0-4.74-4.866c-1.577-.244-3.172-.412-4.765-.5a49.07,49.07,0,0,0-10.281.463A6.074,6.074,0,0,0,3.014,7.433,46.884,46.884,0,0,0,2.45,12.5a48.8,48.8,0,0,0,.351,9.48,6.405,6.405,0,0,0,1.126,3.154,5.7,5.7,0,0,0,3.79,2.46c1.87.249,3.754.431,5.638.532,1.625.087,3.258.018,4.937.018m11.255-3.456a4.859,4.859,0,1,0-4.858,4.857,4.869,4.869,0,0,0,4.858-4.857" transform="translate(0 -0.001)"/>
      <path id="Path_29278" data-name="Path 29278" d="M48.852,49.511q3.8,0,7.6,0a1.175,1.175,0,0,1,.452,2.272,1.755,1.755,0,0,1-.578.091q-7.49.007-14.98,0a1.828,1.828,0,0,1-.4-.043,1.176,1.176,0,0,1-.03-2.288,1.973,1.973,0,0,1,.463-.035q3.737,0,7.474,0" transform="translate(-33.582 -41.539)"/>
      <path id="Path_29279" data-name="Path 29279" d="M45.759,97.66c-1.517,0-3.034.005-4.55,0a1.175,1.175,0,0,1-.48-2.233,1.543,1.543,0,0,1,.6-.126q4.441-.012,8.882,0a1.194,1.194,0,0,1,1.269,1.078,1.175,1.175,0,0,1-.867,1.247,1.837,1.837,0,0,1-.463.041q-2.2,0-4.394,0Z" transform="translate(-33.614 -79.95)"/>
      <path id="Path_29280" data-name="Path 29280" d="M148.311,132.263c0,.332.007.664,0,1a1.181,1.181,0,0,1-2.361.015c-.016-.684-.018-1.37,0-2.054a1.181,1.181,0,0,1,2.36.016c.01.342,0,.685,0,1.027" transform="translate(-122.44 -109.142)"/>
      <path id="Path_29281" data-name="Path 29281" d="M147.113,161.64c1.011,0,1.208.2,1.214,1.182.007,1.02-.195,1.223-1.215,1.22-.125,0-.25,0-.374-.013-.554-.056-.769-.28-.793-.84a6.884,6.884,0,0,1,0-.747c.033-.521.258-.738.782-.777.135-.01.27-.017.382-.024" transform="translate(-122.442 -135.616)"/>
    </g>
  </g>
</svg>
