<svg width="56" height="56" viewBox="0 0 56 56" fill="none" xmlns="http://www.w3.org/2000/svg">
<path d="M35.6071 51.9166H20.3938C8.93711 51.9166 4.03711 47.0166 4.03711 35.56V35.2566C4.03711 24.8966 8.12044 19.9033 17.2671 19.04C18.2004 18.97 19.0871 19.67 19.1804 20.6266C19.2738 21.5833 18.5738 22.4466 17.5938 22.54C10.2671 23.2166 7.53711 26.67 7.53711 35.28V35.5833C7.53711 45.08 10.8971 48.44 20.3938 48.44H35.6071C45.1038 48.44 48.4638 45.08 48.4638 35.5833V35.28C48.4638 26.6233 45.6871 23.17 38.2204 22.54C37.2638 22.4466 36.5404 21.6066 36.6338 20.65C36.7271 19.6933 37.5438 18.97 38.5238 19.0633C47.8104 19.8566 51.9638 24.8733 51.9638 35.3033V35.6066C51.9638 47.0166 47.0638 51.9166 35.6071 51.9166Z" fill="#151517"/>
<path d="M28 36.7486C27.0433 36.7486 26.25 35.9553 26.25 34.9986V8.44531C26.25 7.48865 27.0433 6.69531 28 6.69531C28.9567 6.69531 29.75 7.48865 29.75 8.44531V34.9986C29.75 35.9553 28.9567 36.7486 28 36.7486Z" fill="#151517"/>
<path d="M35.817 15.4007C35.3736 15.4007 34.9303 15.2373 34.5803 14.8873L28.0003 8.30734L21.4203 14.8873C20.7436 15.564 19.6236 15.564 18.947 14.8873C18.2703 14.2107 18.2703 13.0907 18.947 12.414L26.7636 4.59734C27.4403 3.92068 28.5603 3.92068 29.237 4.59734L37.0536 12.414C37.7303 13.0907 37.7303 14.2107 37.0536 14.8873C36.727 15.2373 36.2603 15.4007 35.817 15.4007Z" fill="#151517"/>
</svg>
