<svg xmlns="http://www.w3.org/2000/svg" xmlns:xlink="http://www.w3.org/1999/xlink" width="35.168" height="35.227" viewBox="0 0 35.168 35.227">
  <defs>
    <clipPath id="clip-path">
      <rect id="Rectangle_26217" data-name="Rectangle 26217" width="35.168" height="35.227" fill="none"/>
    </clipPath>
  </defs>
  <g id="venueDetailIcon" transform="translate(0 0)" opacity="0.2">
    <g id="Group_104547" data-name="Group 104547" transform="translate(0 0)" clip-path="url(#clip-path)">
      <path id="Path_29202" data-name="Path 29202" d="M7.073,0a2.84,2.84,0,0,1,.5.346A.955.955,0,0,1,7.755,1.43a.986.986,0,0,1-.972.632c-1.441,0-2.881,0-4.322,0h-.4V6.521c0,.754-.233,1.153-.76,1.3s-.944-.1-1.3-.734V.757A1.574,1.574,0,0,1,.755,0Z" transform="translate(0 0)"/>
      <path id="Path_29203" data-name="Path 29203" d="M54.948,0a1.316,1.316,0,0,1,.765,1.386c-.029,1.788-.008,3.577-.011,5.365a1.03,1.03,0,1,1-2.057.018c-.006-1.432,0-2.866,0-4.3V2.064H49.162c-.729,0-1.147-.261-1.274-.794C47.766.756,48,.35,48.63,0Z" transform="translate(-20.545 0)"/>
      <path id="Path_29204" data-name="Path 29204" d="M0,48.723A2.9,2.9,0,0,1,.372,48.2a.945.945,0,0,1,1.087-.153.991.991,0,0,1,.6.962q.005,2.166,0,4.331v.4H6.509c.753,0,1.149.232,1.3.761s-.1.945-.733,1.3H.756A1.583,1.583,0,0,1,0,55.053v-6.33" transform="translate(0 -20.583)"/>
      <path id="Path_29205" data-name="Path 29205" d="M48.628,55.819a2.9,2.9,0,0,1-.518-.373.946.946,0,0,1-.152-1.089.99.99,0,0,1,.96-.6q2.128-.005,4.256,0h.466v-.371q0-2.081,0-4.162c0-.8.384-1.26,1.039-1.254.64,0,1.021.466,1.021,1.238,0,1.742-.019,3.485.01,5.227a1.318,1.318,0,0,1-.765,1.386Z" transform="translate(-20.543 -20.592)"/>
      <path id="Icon_metro-location" data-name="Icon metro-location" d="M15.824,1.928A7.469,7.469,0,0,0,8.355,9.4c0,7.469,7.469,16.431,7.469,16.431S23.292,16.865,23.292,9.4a7.469,7.469,0,0,0-7.469-7.469Zm0,12.043A4.575,4.575,0,1,1,20.4,9.4,4.575,4.575,0,0,1,15.824,13.971ZM12.929,9.4a2.894,2.894,0,1,1,2.894,2.894A2.894,2.894,0,0,1,12.929,9.4Z" transform="translate(1.76 3.735)"/>
    </g>
  </g>
</svg>
