<svg id="walletIcon" xmlns="http://www.w3.org/2000/svg" xmlns:xlink="http://www.w3.org/1999/xlink" width="19.358" height="17.318" viewBox="0 0 19.358 17.318">
  <defs>
    <clipPath id="clip-path">
      <rect id="Rectangle_25946" data-name="Rectangle 25946" width="19.358" height="17.318" fill="#434950"/>
    </clipPath>
  </defs>
  <g id="Group_104352" data-name="Group 104352" clip-path="url(#clip-path)">
    <path id="Path_29127" data-name="Path 29127" d="M0,15.009V2.307a.575.575,0,0,0,.031-.088A2.6,2.6,0,0,1,2.679,0H5.438q4.706,0,9.411,0a2.6,2.6,0,0,1,2.573,2.216.255.255,0,0,0,.2.249,2.585,2.585,0,0,1,1.735,2.44q.01,4.923,0,9.846a2.592,2.592,0,0,1-2.574,2.563q-7.1.007-14.192,0A2.6,2.6,0,0,1,.151,15.572C.088,15.389.05,15.2,0,15.009M18.137,7.058c0-.711,0-1.385,0-2.058A1.4,1.4,0,0,0,16.661,3.53q-6.983,0-13.967,0A1.4,1.4,0,0,0,1.219,5q0,4.819,0,9.639A1.4,1.4,0,0,0,2.684,16.1q6.993,0,13.986,0a1.4,1.4,0,0,0,1.466-1.461c0-.6,0-1.2,0-1.8,0-.055-.006-.111-.011-.191H17.9c-1.021,0-2.041,0-3.062,0-.3,0-.593,0-.887-.023a2.793,2.793,0,0,1,.336-5.571c1.2,0,2.407,0,3.61,0ZM1.231,2.714a3.584,3.584,0,0,1,2.154-.406q6.272,0,12.544,0H16.2a2.085,2.085,0,0,0-.079-.246,1.4,1.4,0,0,0-1.373-.847H2.712c-.05,0-.1,0-.151,0a1.4,1.4,0,0,0-1.331,1.5m16.891,8.7V8.283c-1.357,0-2.7-.023-4.038.009a1.539,1.539,0,0,0-1.417,1.49,1.565,1.565,0,0,0,1.56,1.64c1.247.009,2.493,0,3.74,0,.049,0,.1-.006.155-.01" transform="translate(0 0)" fill="#434950"/>
    <path id="Path_29130" data-name="Path 29130" d="M104.154,70.377a.633.633,0,1,1,.631.638.633.633,0,0,1-.631-.638" transform="translate(-90.319 -60.48)" fill="#434950"/>
  </g>
</svg>
